<svg width="16px" height="20px" viewBox="0 0 16 20" version="1.1" xmlns="http://www.w3.org/2000/svg" xmlns:xlink="http://www.w3.org/1999/xlink">
  <path fill="#000000" d="M13.7087,3.85761 C13.6959,3.75833 13.6193,3.7016 13.5555,3.7016 C13.4917,3.7016 12.1259,3.58814 12.1259,3.58814 C12.1259,3.58814 11.1814,2.53865 11.0665,2.42519 C10.9644,2.31173 10.7602,2.34009 10.6836,2.36846 C10.6708,2.36846 10.4794,2.43937 10.1475,2.55283 C9.82839,1.51752 9.26677,0.581478 8.28393,0.581478 C8.2584,0.581478 8.23287,0.581478 8.19458,0.581478 C7.92653,0.184371 7.56914,0 7.27556,0 C4.97802,0 3.8803,3.19104 3.53567,4.80783 C2.64218,5.11984 2.00397,5.33258 1.92739,5.36094 C1.42958,5.53113 1.41682,5.54531 1.353,6.07006 C1.30194,6.46717 0,17.6712 0,17.6712 L10.1475,19.7844 L15.6488,18.4655 C15.6488,18.4513 13.7215,3.95688 13.7087,3.85761 Z M9.58587,2.72302 C9.33059,2.80811 9.03701,2.90739 8.73068,3.02085 C8.73068,2.94994 8.73068,2.89321 8.73068,2.80811 C8.73068,2.18409 8.65409,1.67352 8.52645,1.26223 C9.03701,1.34733 9.36888,1.98553 9.58587,2.72302 Z M7.88824,1.40406 C8.02865,1.80116 8.118,2.35428 8.118,3.12012 C8.118,3.16267 8.118,3.19104 8.118,3.23358 C7.55637,3.43214 6.95646,3.63069 6.34378,3.84343 C6.68841,2.38264 7.33938,1.67352 7.88824,1.40406 Z M7.21174,0.680754 C7.31386,0.680754 7.41597,0.723302 7.50532,0.794213 C6.765,1.17714 5.98638,2.14154 5.65452,4.08453 C5.16948,4.25471 4.69721,4.41072 4.25046,4.56673 C4.63338,3.09176 5.56517,0.680754 7.21174,0.680754 Z M8.28393,7.06282 L7.60743,9.30364 C7.60743,9.30364 7.00751,8.94908 6.27996,8.94908 C5.20777,8.94908 5.15671,9.70075 5.15671,9.88512 C5.15671,10.9062 7.55637,11.3034 7.55637,13.7002 C7.55637,15.5864 6.48419,16.8061 5.02907,16.8061 C3.28038,16.8061 2.39966,15.6006 2.39966,15.6006 L2.87193,13.8846 C2.87193,13.8846 3.79095,14.7639 4.5568,14.7639 C5.06736,14.7639 5.27159,14.3242 5.27159,13.998 C5.27159,12.6649 3.30591,12.6081 3.30591,10.4099 C3.30591,8.56616 4.49298,6.77918 6.9054,6.77918 C7.82442,6.765 8.28393,7.06282 8.28393,7.06282 Z"></path>
</svg>
